<?xml version="1.0" standalone="no"?>
<!DOCTYPE svg PUBLIC "-//W3C//DTD SVG 20010904//EN"
 "http://www.w3.org/TR/2001/REC-SVG-20010904/DTD/svg10.dtd">
<svg version="1.0" xmlns="http://www.w3.org/2000/svg"
 width="857.000000pt" height="857.000000pt" viewBox="0 0 857.000000 857.000000"
 preserveAspectRatio="xMidYMid meet">
<metadata>
Created by potrace 1.11, written by Peter Selinger 2001-2013
</metadata>
<g transform="translate(0.000000,857.000000) scale(0.100000,-0.100000)"
fill="#000000" stroke="none">
<path d="M3038 8531 c-42 -20 -117 -56 -166 -79 -50 -23 -166 -79 -259 -123
-92 -45 -199 -96 -238 -114 -38 -18 -117 -55 -175 -83 -241 -115 -329 -156
-405 -192 -44 -20 -134 -63 -200 -95 -205 -98 -337 -161 -430 -205 -249 -118
-282 -133 -595 -283 -52 -25 -148 -70 -212 -100 -160 -75 -151 -52 -144 -380
4 -144 9 -363 11 -487 3 -124 7 -308 10 -410 3 -102 7 -297 10 -435 3 -137 7
-323 10 -412 2 -90 7 -292 10 -450 3 -159 8 -362 10 -453 3 -91 7 -289 11
-440 3 -151 7 -309 8 -350 1 -41 -3 -91 -9 -110 -6 -19 -10 -41 -9 -47 1 -7 2
-19 3 -27 2 -24 49 -73 76 -80 14 -4 56 -26 93 -49 38 -23 77 -47 88 -54 10
-6 79 -49 151 -95 73 -46 141 -87 151 -93 10 -5 47 -29 83 -51 54 -35 222
-139 719 -447 36 -22 81 -50 100 -63 19 -12 154 -96 300 -186 146 -91 293
-182 328 -204 34 -21 70 -44 80 -49 28 -16 493 -305 547 -340 28 -18 79 -50
115 -72 36 -22 317 -196 625 -388 308 -191 572 -355 587 -364 15 -9 60 -37
100 -62 141 -89 278 -174 301 -186 12 -7 29 -18 38 -24 9 -6 176 -110 370
-230 371 -230 394 -240 445 -205 11 8 94 109 184 226 91 116 257 329 368 473
112 144 214 274 225 289 12 15 32 40 43 55 12 15 378 486 814 1047 436 560
796 1032 801 1049 5 16 11 73 14 126 3 53 8 103 10 111 2 8 7 56 10 105 3 50
8 106 10 125 4 32 8 79 20 230 3 30 7 78 10 105 9 92 16 170 20 230 3 33 7 80
10 105 2 25 7 81 10 125 3 44 8 91 10 105 2 14 7 66 10 115 4 50 8 101 10 115
3 14 7 63 10 110 3 47 8 100 10 119 2 18 7 72 10 120 4 47 8 97 10 111 2 14 7
61 10 105 4 44 8 96 10 115 4 35 9 91 20 225 8 99 15 173 20 225 2 25 7 74 10
110 3 36 7 90 10 120 3 30 7 78 10 105 7 82 15 171 20 238 3 34 8 85 10 112 3
28 7 75 10 105 3 30 7 84 10 120 3 36 7 90 10 120 3 30 7 75 10 99 4 47 -12
98 -38 119 -8 7 -161 53 -339 102 -177 49 -345 96 -373 104 -63 19 -375 106
-395 111 -34 8 -133 35 -265 73 -244 69 -509 144 -525 147 -8 2 -98 26 -200
55 -102 29 -192 53 -200 56 -8 2 -40 10 -70 19 -30 9 -89 25 -130 36 -41 11
-95 26 -120 33 -76 23 -442 125 -575 161 -27 7 -106 29 -175 49 -69 19 -208
58 -310 86 -102 28 -241 67 -310 86 -69 19 -147 41 -175 49 -27 7 -106 29
-175 49 -820 229 -809 226 -840 225 -14 0 -60 -17 -102 -38z m120 -218 c0 -10
2 -72 6 -138 4 -66 9 -167 11 -225 2 -58 7 -154 9 -215 7 -139 16 -324 21
-440 14 -314 17 -376 20 -425 2 -30 6 -130 10 -221 4 -92 8 -178 9 -193 2 -16
-12 -57 -36 -104 -84 -162 -130 -247 -137 -255 -6 -6 -342 128 -496 197 -16 8
-237 100 -490 206 -253 106 -473 198 -490 205 -16 8 -73 31 -125 53 -794 331
-887 372 -852 372 11 0 69 26 312 142 63 31 158 76 210 100 121 58 283 135
430 205 63 31 153 73 200 95 47 22 121 57 165 78 44 21 139 66 210 100 72 34
166 79 210 100 44 21 141 67 215 102 74 35 187 89 250 119 63 30 162 77 220
106 58 28 108 52 112 52 4 1 6 -7 6 -16z m352 -79 c52 -14 102 -27 110 -29 8
-2 65 -18 125 -35 61 -18 117 -33 125 -35 8 -2 40 -11 70 -20 30 -9 62 -17 70
-20 8 -2 83 -22 165 -45 153 -43 234 -66 339 -94 32 -9 100 -28 150 -42 50
-14 98 -28 106 -29 8 -2 146 -41 305 -85 160 -45 297 -83 305 -85 8 -2 87 -24
175 -50 88 -25 169 -47 180 -49 11 -3 44 -12 74 -21 30 -9 62 -18 70 -20 9 -2
50 -13 91 -25 41 -11 82 -23 90 -25 41 -11 478 -133 735 -205 160 -45 299 -84
310 -87 26 -7 435 -120 500 -139 28 -7 124 -35 215 -60 91 -25 166 -47 168
-49 1 -1 -43 -40 -99 -85 l-102 -83 -55 18 c-74 23 -95 26 -182 27 -177 2
-393 -50 -675 -162 -41 -16 -400 -184 -411 -192 -6 -4 -46 -26 -90 -49 -95
-50 -189 -103 -306 -175 -48 -30 -90 -54 -93 -54 -3 0 -11 -5 -18 -10 -7 -6
-70 -47 -142 -92 -71 -45 -178 -115 -237 -154 -59 -40 -109 -70 -112 -66 -9
15 -35 129 -41 182 -4 30 -13 89 -21 130 -8 41 -17 90 -20 109 -12 72 -75 314
-110 422 -75 235 -203 521 -307 689 -46 74 -156 217 -184 240 -10 8 -40 34
-68 57 -27 22 -81 58 -118 78 -66 36 -72 38 -171 38 -94 1 -107 -2 -169 -31
-164 -76 -244 -158 -434 -445 -162 -243 -198 -299 -297 -462 -38 -62 -66 -101
-67 -90 0 11 -2 38 -4 60 -2 22 -6 110 -10 195 -3 85 -8 184 -10 220 -2 36 -6
126 -9 200 -6 143 -12 266 -21 445 -15 300 -15 324 -2 320 6 -2 55 -16 107
-31z m-2845 -1390 c88 -36 185 -77 215 -89 49 -20 1163 -488 1505 -632 72 -30
168 -70 215 -90 47 -19 99 -41 115 -48 17 -7 81 -34 142 -60 62 -26 111 -50
109 -54 -76 -136 -270 -626 -362 -912 l-58 -179 -44 -27 c-25 -16 -49 -27 -54
-25 -5 1 -80 53 -166 114 -246 175 -285 202 -482 332 -232 152 -221 146 -367
217 -107 52 -279 116 -360 135 -16 3 -67 8 -115 10 -103 4 -163 -13 -224 -62
-106 -85 -164 -313 -128 -504 19 -99 79 -333 102 -400 52 -147 218 -482 333
-673 l29 -47 -53 -34 c-278 -176 -464 -292 -479 -298 -16 -7 -18 -1 -18 60 -1
80 -7 359 -25 1107 -3 127 -7 327 -10 445 -3 118 -7 321 -10 450 -12 507 -14
606 -20 910 -4 173 -8 340 -10 370 -3 74 0 81 33 65 15 -8 99 -44 187 -81z
m7430 -151 c-11 -135 -24 -281 -30 -343 -7 -70 -15 -159 -20 -230 -3 -36 -7
-87 -10 -115 -16 -174 -24 -261 -30 -340 -3 -38 -8 -81 -10 -95 -2 -14 -7 -63
-10 -110 -3 -47 -8 -105 -10 -130 -2 -25 -7 -80 -10 -122 -3 -43 -8 -86 -9
-95 -2 -10 -7 -63 -10 -118 -4 -55 -9 -111 -11 -125 -2 -14 -7 -61 -10 -105
-3 -44 -8 -98 -10 -120 -2 -22 -7 -74 -10 -115 -4 -41 -8 -86 -10 -100 -2 -14
-6 -65 -10 -115 -3 -49 -8 -106 -10 -125 -5 -39 -12 -120 -20 -225 -3 -38 -8
-90 -11 -115 -2 -25 -6 -74 -9 -110 -3 -36 -7 -85 -10 -110 -2 -25 -7 -79 -10
-120 -7 -89 -15 -154 -20 -159 -2 -2 -55 17 -117 42 -62 25 -203 83 -313 128
-176 71 -680 275 -1060 429 -71 29 -142 57 -158 64 -15 6 -26 14 -25 17 2 4
55 49 118 100 63 51 120 98 126 104 6 5 47 42 90 80 189 167 453 443 634 660
41 50 77 92 80 95 23 21 257 344 338 465 211 319 285 460 357 679 49 152 70
268 62 356 l-5 60 87 70 c47 38 87 69 89 70 2 0 1 -35 -3 -77z m-2649 -1080
c-3 -131 -7 -260 -10 -288 -3 -27 -8 -72 -11 -100 -7 -64 -16 -115 -21 -115
-5 0 -104 39 -148 59 -23 11 -81 35 -131 55 -49 21 -108 45 -130 55 -22 10
-77 33 -122 52 -46 18 -83 36 -83 40 0 4 26 29 58 56 31 26 59 51 62 54 41 47
500 368 527 369 10 0 12 -52 9 -237z m-773 -449 c34 -14 76 -31 92 -39 17 -7
102 -43 190 -80 88 -36 178 -74 200 -84 22 -10 77 -33 123 -51 83 -34 84 -35
77 -65 -19 -91 -41 -164 -85 -290 -23 -66 -44 -128 -47 -137 -3 -10 -11 -18
-17 -18 -7 0 -66 22 -132 49 -65 27 -272 110 -459 186 -187 75 -343 140 -347
144 -16 15 305 411 333 411 5 0 38 -12 72 -26z m-472 -610 c35 -14 78 -32 94
-39 17 -7 206 -84 420 -170 215 -87 393 -159 398 -162 15 -9 -148 -295 -274
-478 -77 -111 -256 -340 -306 -391 -24 -24 -13 -27 85 -21 246 14 521 106 791
262 l63 37 -6 -343 c-4 -189 -9 -416 -11 -504 -2 -88 -7 -306 -10 -485 -3
-179 -8 -397 -10 -485 -2 -88 -6 -315 -10 -505 -4 -190 -8 -417 -10 -505 -2
-88 -4 -220 -5 -292 -1 -73 -6 -135 -10 -138 -5 -3 -29 7 -54 22 -69 42 -583
361 -641 398 -27 18 -194 121 -370 230 -176 109 -342 213 -370 230 -27 18
-108 68 -180 112 -189 117 -666 413 -695 432 -14 9 -30 18 -35 21 -10 4 -202
124 -330 205 -109 68 -675 421 -692 430 -16 9 -395 244 -555 344 -99 62 -164
103 -516 321 l-342 212 202 128 c287 182 369 232 372 228 1 -1 14 -20 29 -40
15 -20 27 -41 27 -47 0 -6 4 -11 8 -11 4 0 16 -15 27 -32 29 -52 234 -323 331
-438 291 -348 618 -667 994 -969 63 -51 123 -99 134 -108 29 -24 229 -154 251
-164 11 -5 27 -13 35 -19 74 -49 286 -127 435 -162 123 -28 305 -32 401 -7
108 27 198 75 269 144 68 66 106 124 137 212 30 86 33 106 31 238 -1 99 -6
139 -31 230 -31 118 -130 407 -167 491 l-23 51 49 17 c27 10 77 36 111 58 61
40 242 188 236 193 -2 2 -39 12 -83 24 -121 33 -250 100 -313 163 -131 130
-191 324 -156 507 16 83 67 280 89 346 16 45 114 255 119 255 2 0 31 -12 67
-26z m1774 -719 c22 -9 49 -20 60 -25 11 -5 209 -85 440 -179 1072 -432 1219
-492 1228 -500 4 -4 -234 -317 -529 -697 -295 -379 -546 -702 -558 -717 -11
-16 -26 -34 -31 -40 -6 -7 -215 -275 -464 -597 -250 -322 -460 -592 -468 -600
-12 -13 -13 23 -8 260 3 151 8 383 10 515 6 313 14 689 21 1000 2 138 7 340 9
450 21 1043 20 1038 33 1043 6 2 48 29 94 61 64 45 87 57 103 51 11 -5 38 -16
60 -25z"/>
</g>
</svg>
